<?xml version="1.0" standalone="no"?>
<!DOCTYPE svg PUBLIC "-//W3C//DTD SVG 20010904//EN"
 "http://www.w3.org/TR/2001/REC-SVG-20010904/DTD/svg10.dtd">
<svg version="1.0" xmlns="http://www.w3.org/2000/svg"
 width="1920.000000pt" height="470.000000pt" viewBox="0 0 1920.000000 470.000000"
 preserveAspectRatio="xMidYMid meet">
<metadata>
Created by potrace 1.16, written by Peter Selinger 2001-2019
</metadata>
<g transform="translate(0.000000,470.000000) scale(0.100000,-0.100000)"
fill="#000000" stroke="none">
<path d="M0 4579 l0 -121 19 23 c16 20 23 22 38 13 25 -15 40 -61 27 -81 -22
-35 -44 -40 -65 -14 l-19 23 0 -82 c0 -81 0 -83 19 -66 19 17 21 17 48 -3 26
-20 40 -21 153 -19 l125 3 5 149 c5 145 6 149 23 131 13 -12 15 -21 8 -28 -16
-16 -13 -47 4 -47 8 0 15 4 15 10 0 5 12 17 26 27 26 16 27 16 45 -6 23 -28
25 -74 3 -95 -20 -21 -26 -20 -58 5 l-26 20 -10 -25 c-11 -31 -16 -123 -7
-133 7 -6 38 7 69 29 15 11 22 8 47 -19 l28 -31 -37 -10 c-20 -5 -62 -6 -93
-2 -91 13 -324 12 -332 0 -4 -7 -18 -9 -31 -6 -21 6 -24 3 -24 -24 l0 -30 733
0 c887 0 1797 -10 1852 -19 l40 -7 -3 -50 c-1 -27 3 -62 9 -77 25 -60 37 -58
-543 -57 -418 0 -527 -2 -536 -12 -11 -13 -33 -250 -27 -284 2 -11 4 -22 4
-25 2 -11 157 -2 179 10 24 13 176 14 504 4 l225 -6 11 -29 c7 -19 17 -28 33
-28 16 0 20 -3 13 -10 -10 -10 -626 -9 -874 1 -94 4 -95 4 -98 -20 -3 -15 3
-30 14 -38 22 -16 155 -18 171 -2 12 12 643 13 654 1 3 -4 9 -22 13 -40 l6
-33 -358 1 c-460 2 -474 1 -492 -10 -13 -8 -13 -12 3 -27 16 -17 53 -18 510
-21 271 -2 499 -8 507 -13 9 -5 -195 -9 -491 -9 -533 0 -552 -2 -536 -44 6
-14 15 -16 52 -11 64 10 97 0 93 -28 -3 -20 -9 -22 -75 -25 l-73 -3 -1 -37
c-5 -132 -6 -208 -2 -223 5 -19 43 -32 66 -23 8 3 13 13 10 23 -4 15 5 21 41
30 58 14 119 14 134 -1 7 -7 12 -22 12 -35 0 -21 5 -23 53 -25 l52 -1 -62 -6
c-34 -3 -64 -9 -68 -12 -3 -4 12 -28 35 -53 22 -26 40 -52 40 -59 0 -6 -8 -31
-17 -55 -13 -35 -14 -48 -5 -63 10 -16 9 -22 -8 -39 -24 -24 -26 -40 -6 -40
24 0 28 -18 11 -44 -9 -14 -14 -30 -10 -36 3 -6 1 -26 -5 -45 -11 -32 -15 -35
-53 -36 -23 0 -55 -2 -72 -3 -51 -4 -76 10 -69 38 9 36 11 195 3 246 -4 25 -4
50 0 55 9 13 7 87 -3 103 -4 7 -1 15 8 18 22 9 10 24 -19 24 -37 0 -45 -27
-44 -146 1 -60 0 -158 -1 -217 -1 -60 0 -111 3 -113 3 -3 -4 -15 -14 -25 -16
-16 -19 -31 -17 -71 3 -47 5 -52 28 -54 38 -3 70 7 70 22 0 21 34 34 93 34 48
0 55 -3 65 -25 11 -24 15 -25 106 -25 111 0 132 -5 111 -26 -8 -8 -12 -21 -9
-28 7 -18 -19 -26 -95 -31 -33 -2 -69 -8 -80 -14 -11 -6 -34 -11 -51 -11 -25
0 -31 -4 -28 -17 3 -17 20 -18 205 -16 l202 3 28 -35 c15 -19 35 -35 43 -35
10 0 11 -3 3 -11 -7 -7 -96 -10 -269 -10 -210 1 -264 -2 -288 -14 -30 -16 -53
-11 -38 8 12 15 10 96 -3 105 -12 8 -13 32 -2 50 5 8 3 12 -7 12 -10 0 -16 9
-16 25 0 14 -6 25 -13 25 -16 0 -40 -47 -32 -61 4 -5 3 -9 -2 -9 -10 0 -10
-91 0 -107 6 -9 3 -11 -8 -7 -9 4 -15 3 -14 -2 1 -5 -1 -27 -6 -49 -8 -37 -9
-38 -16 -15 -4 14 -8 383 -9 820 -1 437 -5 815 -9 840 -7 38 -9 40 -10 13 0
-17 -5 -35 -11 -38 -14 -8 -13 -45 1 -45 7 0 9 -11 4 -32 -3 -18 -6 -57 -5
-86 0 -30 -4 -60 -11 -68 -9 -11 -9 -18 -1 -26 15 -15 16 -75 2 -83 -7 -4 -7
-12 0 -25 14 -26 13 -73 -2 -88 -9 -9 -9 -15 0 -24 16 -16 15 -61 0 -76 -10
-10 -10 -17 0 -32 15 -25 16 -72 0 -88 -9 -9 -8 -18 2 -37 12 -22 12 -32 0
-62 -9 -27 -10 -38 -1 -41 15 -5 14 -65 -1 -80 -10 -10 -10 -17 0 -32 15 -25
15 -45 0 -70 -10 -16 -10 -24 0 -40 15 -25 15 -53 0 -68 -9 -9 -9 -20 1 -48 9
-26 10 -39 2 -47 -15 -15 -14 -53 1 -77 10 -16 10 -24 0 -40 -14 -24 -16 -60
-2 -60 6 0 10 -11 10 -25 0 -14 -4 -25 -9 -25 -17 0 -18 -34 -3 -61 14 -25 13
-29 -7 -58 -18 -25 -20 -35 -11 -46 6 -7 10 -28 8 -46 -3 -28 -8 -34 -38 -42
-52 -13 -358 -3 -397 13 -24 11 -37 11 -57 2 -18 -8 -26 -8 -28 0 -6 17 -63
-8 -102 -44 -21 -19 -38 -27 -51 -23 -11 3 -40 8 -65 11 -25 3 -55 10 -67 16
-17 8 -33 8 -62 0 -21 -7 -49 -13 -62 -14 -13 -1 14 -5 61 -8 81 -6 80 -6 -40
-7 -69 0 -109 3 -90 6 l35 7 -45 8 c-25 5 -70 10 -100 10 -67 1 -87 11 -66 32
20 19 385 21 417 2 18 -12 24 -9 53 25 44 50 118 236 119 298 1 58 -68 209
-107 235 -24 15 -33 15 -86 4 -77 -16 -364 -6 -396 15 -18 12 -25 11 -55 -7
-47 -28 -109 -89 -109 -108 0 -8 11 -32 25 -52 30 -45 31 -58 5 -58 -11 0 -20
-5 -20 -12 0 -11 34 -124 50 -163 41 -103 50 -129 46 -133 -7 -6 -41 69 -75
168 -58 165 -73 188 -106 160 -13 -11 -15 -71 -15 -412 l0 -399 51 7 c62 8
152 -11 194 -42 55 -40 98 -46 305 -48 109 0 196 -4 193 -9 -7 -11 11 -8 32 6
11 8 34 14 50 14 17 0 64 10 105 23 65 19 88 22 169 16 51 -4 102 -11 112 -16
28 -15 78 -12 149 11 60 19 84 20 306 16 l242 -4 84 -41 c71 -33 99 -41 174
-47 49 -4 96 -11 104 -15 23 -12 228 -22 483 -25 l228 -2 29 -28 c24 -23 27
-31 17 -43 -9 -12 -9 -16 1 -19 14 -5 16 -39 2 -48 -5 -3 -10 -17 -10 -29 0
-13 -7 -29 -15 -36 -8 -7 -15 -17 -15 -22 0 -15 -52 -57 -87 -70 -17 -6 -33
-19 -36 -27 -5 -22 4 -91 12 -91 12 0 -5 -93 -22 -125 -10 -18 -17 -53 -17
-89 0 -58 -1 -61 -46 -102 -25 -24 -43 -48 -39 -54 3 -5 3 -16 -2 -23 -4 -6
-8 -24 -9 -38 -2 -34 -31 -66 -72 -80 -34 -11 -34 -12 -30 -61 5 -43 3 -51
-13 -55 -11 -3 -19 -9 -19 -13 0 -4 -15 -15 -34 -24 -30 -14 -93 -16 -513 -16
-289 0 -492 4 -514 10 -20 6 -70 11 -110 13 -41 1 -77 6 -80 10 -4 5 -16 -1
-28 -14 -16 -17 -18 -25 -9 -31 10 -6 10 -10 -2 -18 -8 -5 -22 -10 -30 -10 -9
0 -11 -3 -5 -8 6 -4 22 -23 35 -42 13 -19 33 -43 44 -52 16 -13 18 -20 9 -29
-9 -9 -7 -19 8 -45 25 -46 24 -58 -8 -79 -20 -14 -33 -15 -57 -8 -20 6 -42 6
-59 0 -20 -6 -32 -6 -40 2 -6 6 -18 11 -26 11 -24 0 -80 69 -87 108 -4 21 -13
44 -21 53 -12 14 -12 17 2 23 9 3 13 11 9 17 -3 6 6 21 22 34 l29 23 -25 21
c-14 11 -30 20 -35 21 -21 0 -46 42 -52 85 -7 55 11 103 44 116 18 7 23 15 21
38 -1 16 4 36 11 45 7 8 10 20 6 27 -11 16 45 58 78 59 17 0 27 5 27 15 0 8
-6 15 -14 15 -31 0 -51 132 -22 143 9 4 16 -1 19 -11 3 -14 6 -12 15 8 6 14
11 20 11 13 1 -7 13 -24 28 -38 23 -22 34 -25 66 -20 84 12 103 54 35 75 -24
7 -47 17 -52 21 -5 4 -22 5 -38 2 -24 -5 -34 0 -58 28 -16 19 -29 42 -30 51 0
25 -41 70 -58 63 -7 -2 -10 -1 -7 4 3 5 1 12 -4 15 -12 8 -43 -23 -35 -35 3
-6 0 -16 -6 -24 -7 -8 -9 -15 -4 -15 5 0 0 -7 -11 -16 -17 -13 -18 -16 -5 -25
12 -9 11 -9 -5 -4 -11 4 -26 8 -32 8 -7 0 -13 9 -13 19 0 11 -5 16 -10 13 -6
-4 -17 -2 -24 4 -8 7 -18 11 -22 10 -5 -1 -13 0 -19 1 -12 2 -59 4 -547 14
l-378 9 0 -115 0 -116 78 -8 c42 -4 156 -8 252 -9 148 -1 181 -5 212 -20 41
-20 48 -33 45 -82 -3 -38 -29 -69 -71 -83 -18 -6 -104 -12 -192 -14 -87 -3
-163 -5 -169 -6 -5 -1 -32 1 -59 4 -27 3 -59 3 -72 0 l-24 -6 0 -225 c0 -211
1 -227 21 -254 l20 -29 -20 0 c-19 0 -21 -6 -21 -55 l0 -55 865 0 865 0 11 27
c15 41 75 79 127 81 37 1 82 -45 82 -84 l0 -24 351 0 c231 0 348 3 344 10 -3
6 0 10 8 10 8 0 22 9 31 19 29 32 73 21 89 -21 6 -17 34 -18 400 -18 385 0
393 0 395 20 1 11 2 26 3 33 1 6 -4 39 -10 72 -19 97 -20 113 -7 168 19 76 42
125 74 156 l29 26 -4 125 c-2 69 -4 134 -4 145 2 80 -1 131 -9 145 -5 10 -4
34 2 59 9 34 8 45 -2 51 -7 5 -13 28 -14 54 -1 25 -5 46 -10 46 -4 0 -5 7 -2
17 4 9 2 31 -4 49 -19 58 -29 138 -18 152 7 8 7 12 -1 12 -16 0 -14 50 4 100
8 23 14 51 14 63 0 12 2 47 5 77 3 30 5 61 6 68 0 6 8 12 18 12 13 0 14 2 3 9
-10 6 -2 11 27 16 23 4 47 3 54 -1 7 -4 29 -7 50 -5 24 2 38 -2 38 -9 0 -8 11
-11 29 -8 18 3 28 0 24 -6 -4 -6 1 -6 13 -1 10 4 30 10 44 12 22 4 103 38 153
64 10 5 62 7 115 5 53 -3 203 -8 332 -12 129 -3 244 -7 255 -8 64 -8 141 -37
128 -49 -3 -4 1 -7 11 -7 9 0 36 -9 59 -20 96 -47 366 -43 428 6 8 6 38 17 67
25 28 7 52 17 52 21 0 18 81 4 95 -15 8 -12 20 -17 29 -14 9 4 16 3 16 -2 0
-20 209 -89 220 -72 5 8 148 7 303 -3 57 -4 104 -3 110 2 7 5 33 13 59 16 25
4 51 13 58 21 6 7 23 16 38 20 15 4 29 11 32 16 8 11 101 14 155 4 22 -4 54
-18 72 -31 17 -13 36 -24 42 -24 6 0 11 -4 11 -8 0 -15 119 -32 221 -31 57 0
149 -7 203 -16 56 -10 131 -15 173 -13 40 2 73 0 73 -4 0 -13 28 -9 33 5 4 9
7 9 14 0 5 -7 29 -13 53 -13 125 -2 286 -7 290 -9 3 -1 75 -4 160 -7 85 -2
173 -6 195 -8 22 -2 51 1 65 6 16 6 26 6 28 -1 2 -6 16 -8 31 -5 16 4 32 1 35
-5 5 -7 13 -8 25 -1 10 5 21 7 23 4 3 -3 79 -7 169 -9 90 -2 164 -4 164 -5 0
0 63 -3 140 -5 77 -3 186 -7 243 -9 60 -3 102 0 102 5 0 6 7 6 18 0 21 -11 80
-10 98 2 7 4 15 0 18 -9 4 -11 12 -14 24 -9 18 7 204 7 396 0 75 -3 124 -1
132 6 7 6 14 6 18 0 3 -5 21 -8 38 -6 18 1 36 0 41 -2 18 -10 257 -9 261 1 3
8 7 7 13 -1 12 -17 342 -15 411 3 29 8 62 14 73 14 11 0 22 7 25 15 4 8 14 15
24 15 26 0 34 18 18 37 -12 15 -11 15 10 4 24 -13 30 -3 10 17 -7 7 -8 12 -2
12 5 0 8 45 6 110 -3 97 -2 111 13 117 10 3 25 2 34 -4 13 -8 16 -29 16 -112
0 -110 -4 -102 60 -106 11 -1 26 -4 33 -9 22 -13 46 24 31 49 -11 18 -20 65
-12 65 4 0 33 -20 64 -45 32 -25 67 -45 80 -45 18 0 5 16 -63 80 -65 61 -85
85 -81 100 5 18 14 20 75 20 l70 0 88 -90 c48 -49 93 -90 99 -90 24 0 8 25
-59 94 -39 40 -67 75 -64 78 3 4 49 4 102 1 90 -5 100 -8 133 -37 20 -17 52
-44 73 -59 27 -21 36 -35 36 -57 0 -29 1 -30 53 -30 75 0 79 5 80 95 l0 78
244 -6 c190 -5 244 -4 240 6 -2 7 -26 15 -53 18 -75 10 -104 25 -104 52 0 22
6 25 48 30 26 3 52 2 57 -2 28 -22 45 -20 59 7 14 26 15 26 16 5 0 -27 6 -28
42 -9 18 9 30 11 34 5 3 -6 12 -8 19 -5 7 2 16 -2 19 -10 3 -8 13 -14 21 -14
9 0 32 -11 52 -24 35 -24 35 -25 12 -30 -52 -11 -149 -17 -149 -9 0 4 -14 8
-30 9 -17 1 -30 -2 -30 -5 0 -12 17 -32 26 -30 26 5 29 -6 26 -88 -4 -127 -6
-136 -42 -128 -16 3 -66 6 -112 7 -166 0 -164 0 -176 -27 -15 -33 -1 -58 48
-82 19 -10 36 -21 38 -25 2 -5 16 -5 30 -2 19 4 23 3 13 -4 -15 -11 62 -9 90
3 9 3 31 7 50 8 19 1 41 7 49 12 7 5 31 8 52 6 24 -1 38 3 38 10 0 6 11 22 24
34 14 13 22 25 19 29 -3 3 -6 55 -7 116 l-1 110 32 0 c18 0 45 5 60 12 30 12
103 86 103 104 0 6 -17 14 -38 18 -74 11 -172 98 -172 151 0 17 2 17 23 -3 43
-40 103 -54 202 -47 76 6 99 12 150 40 33 19 84 56 113 83 29 27 54 46 57 44
11 -11 4 -95 -10 -121 -8 -16 -12 -30 -10 -32 8 -9 1233 6 1323 15 27 3 32 1
32 -18 0 -35 -45 -158 -74 -204 -14 -23 -26 -48 -26 -57 0 -13 -33 -15 -250
-15 -229 0 -255 -2 -311 -21 -36 -12 -64 -17 -68 -12 -7 11 -51 12 -51 1 0 -4
-4 -8 -10 -8 -20 0 -50 -35 -50 -59 0 -20 -3 -22 -12 -13 -9 9 -10 19 -1 42 9
23 8 30 -1 30 -7 0 -13 -6 -14 -12 -2 -19 -9 -62 -11 -67 0 -2 -8 2 -16 9 -8
7 -13 16 -10 20 5 9 -21 23 -45 25 -8 0 -14 7 -12 15 2 10 0 11 -10 3 -21 -16
-66 -24 -73 -12 -4 6 -13 8 -21 5 -7 -3 -19 1 -27 8 -15 16 -57 31 -74 28 -7
-2 -13 2 -13 8 0 5 5 10 12 10 16 0 1 13 -20 17 -19 2 -213 12 -357 17 l-90 3
0 -121 0 -121 -35 2 c-28 2 -31 0 -15 -7 19 -8 19 -9 -2 -9 -31 -1 -30 -31 0
-31 12 0 39 -9 60 -20 60 -33 128 -27 191 15 29 19 58 35 65 35 6 0 11 4 11
10 0 5 48 7 123 4 67 -2 190 -6 273 -8 87 -2 161 -9 173 -16 12 -6 25 -9 30
-6 7 5 47 -21 98 -64 7 -5 19 -10 26 -10 16 0 78 -25 89 -35 4 -4 29 -9 55
-11 26 -2 77 -6 113 -9 36 -3 92 -8 125 -10 33 -3 74 -8 90 -12 17 -3 59 -6
95 -5 36 0 70 -4 76 -9 6 -5 41 -7 78 -5 36 2 69 0 71 -5 3 -4 47 -6 97 -4 57
3 96 0 105 -6 7 -6 20 -8 29 -5 9 4 22 2 29 -4 9 -8 18 -6 30 7 21 20 61 28
70 13 3 -5 14 -10 24 -10 18 0 61 -35 61 -49 0 -5 -14 -14 -31 -20 -20 -7 -30
-17 -29 -28 1 -10 2 -27 1 -37 -1 -19 -6 -19 -126 -4 -12 2 -20 -3 -20 -12 0
-9 11 -16 30 -18 17 -1 41 -5 54 -8 l23 -5 -22 -19 c-17 -15 -21 -26 -16 -46
7 -25 6 -26 -9 -14 -10 8 -21 23 -25 35 -7 15 -9 10 -9 -23 -1 -36 -5 -44 -26
-52 -14 -5 -25 -16 -25 -24 0 -8 -6 -19 -14 -23 -18 -10 -32 -63 -17 -63 6 0
11 -12 11 -27 0 -16 7 -37 15 -47 25 -34 19 -78 -16 -109 -17 -15 -37 -27 -45
-27 -8 0 -13 -3 -12 -8 1 -4 -4 -19 -11 -33 -10 -21 -10 -31 -1 -49 33 -62 10
-116 -56 -131 -21 -4 -52 -11 -69 -15 -16 -4 -38 -13 -47 -22 -10 -8 -18 -11
-18 -7 0 5 -5 4 -12 -3 -9 -9 -9 -17 2 -36 7 -14 17 -23 22 -20 4 3 8 -17 8
-44 0 -52 -25 -90 -54 -79 -8 3 -22 -1 -33 -8 -10 -8 -25 -15 -34 -15 -8 0
-25 -9 -37 -20 -12 -11 -26 -20 -32 -20 -5 0 -10 -7 -10 -15 0 -8 5 -15 10
-15 6 0 10 -10 10 -22 0 -19 2 -20 10 -8 5 8 10 11 10 5 0 -29 -72 -62 -110
-50 -12 4 -64 7 -116 7 -55 0 -94 4 -94 10 0 11 -43 0 -48 -13 -2 -5 -12 -4
-22 1 -11 6 -65 10 -122 9 -111 -1 -123 -1 -181 0 -21 0 -36 -3 -33 -7 7 -12
-279 -8 -295 4 -8 5 -30 10 -49 9 -36 -1 -53 12 -70 53 -10 24 0 43 30 55 13
5 13 6 -1 6 -8 1 -29 17 -45 37 -16 20 -40 47 -53 59 -18 18 -22 27 -14 37 6
7 13 24 15 38 2 15 14 30 31 38 31 15 36 32 10 32 -17 1 -17 1 0 11 17 10 16
12 -8 31 -14 11 -23 23 -20 27 2 5 -4 16 -15 26 -22 20 -27 55 -9 55 8 0 8 5
-1 15 -10 12 -10 15 0 15 7 0 10 7 6 16 -3 8 -2 13 3 10 31 -20 36 70 6 101
-29 28 -115 45 -115 22 0 -6 -6 -9 -12 -6 -7 2 -12 10 -10 16 1 6 -2 11 -8 11
-5 0 -10 -4 -10 -9 0 -10 -40 -3 -41 8 -7 75 -8 72 20 70 14 -1 37 3 51 9 14
6 19 11 11 11 -9 1 -11 9 -7 25 3 14 1 28 -5 31 -6 5 -4 11 7 19 16 12 15 13
-5 19 -11 3 -21 11 -21 19 0 26 -110 52 -125 29 -3 -6 -22 -8 -43 -6 -20 3
-70 7 -111 9 -78 5 -101 -2 -101 -34 0 -10 -7 -20 -15 -24 -8 -3 -14 -11 -13
-18 2 -7 -7 -14 -19 -16 -13 -2 -23 -8 -23 -13 0 -5 -10 -7 -23 -4 -12 3 -54
0 -92 -6 -83 -15 -133 -16 -160 -4 -29 13 -43 14 -234 20 -95 3 -177 7 -181
10 -4 3 -118 8 -252 11 -212 5 -323 10 -323 14 0 6 -138 3 -142 -3 -3 -4 -11
0 -18 10 -11 14 -16 15 -28 5 -8 -7 -18 -9 -20 -4 -3 4 -71 7 -151 6 -81 -1
-144 1 -142 4 2 4 -35 8 -83 9 -47 2 -129 5 -181 8 -52 3 -153 7 -225 10 -172
7 -295 14 -375 21 -36 3 -130 7 -210 9 -80 2 -172 6 -205 9 -33 3 -126 8 -206
10 -80 3 -150 6 -155 7 -5 1 -11 1 -14 0 -3 -2 -23 -4 -45 -5 -22 -1 -56 -9
-75 -18 -19 -8 -41 -13 -47 -11 -7 3 -13 0 -13 -5 0 -5 -26 -14 -57 -20 -56
-11 -294 -42 -320 -42 -21 0 -15 -21 7 -27 11 -3 20 -11 20 -19 0 -7 5 -16 10
-19 6 -4 9 -3 8 2 -2 4 2 9 7 10 6 1 9 -9 8 -23 -1 -13 2 -24 8 -24 17 0 9
-18 -11 -23 -25 -7 -26 -27 -1 -27 10 0 35 -7 56 -16 20 -8 39 -13 42 -10 3 2
25 -18 51 -45 34 -37 48 -46 58 -38 7 6 18 8 24 4 6 -4 40 -8 76 -10 36 -2 70
-8 77 -13 7 -5 73 -9 149 -8 76 0 138 -2 138 -5 0 -7 14 -8 86 -8 19 0 34 -7
38 -16 4 -12 10 -13 24 -6 13 7 22 7 30 -1 7 -7 12 -8 12 -2 0 11 96 18 113 7
6 -3 42 -5 81 -3 39 2 106 4 148 4 69 0 80 -3 98 -24 16 -18 20 -20 20 -7 0
19 15 23 25 7 4 -6 10 -8 14 -6 4 3 22 -10 39 -29 16 -19 36 -35 43 -35 10 0
10 -3 1 -12 -7 -7 -12 -20 -12 -30 0 -10 -11 -24 -25 -30 -14 -6 -25 -17 -25
-25 0 -7 -7 -13 -15 -13 -8 0 -15 -6 -15 -14 0 -7 -15 -19 -32 -27 -18 -7 -35
-16 -38 -20 -24 -31 -126 -49 -155 -28 -6 5 -20 8 -30 9 -11 0 -38 2 -60 5
-22 2 -85 4 -139 5 -55 0 -106 6 -113 11 -9 8 -30 8 -68 1 -31 -5 -58 -6 -60
-2 -2 4 -27 5 -54 3 -28 -2 -52 1 -56 7 -3 6 -12 7 -18 3 -17 -11 -39 -13 -51
-5 -6 4 -49 5 -95 3 -50 -2 -86 1 -90 7 -3 6 -28 12 -54 14 -27 3 -52 9 -55
15 -20 32 -304 34 -398 3 -46 -16 -160 -5 -168 16 -3 8 -12 14 -21 14 -8 0
-15 4 -15 10 0 5 -13 8 -30 6 -28 -3 -30 -1 -30 30 0 19 5 34 10 34 6 0 10 -4
10 -10 0 -5 7 -7 16 -3 10 4 17 -1 21 -16 7 -26 19 -27 26 -1 3 11 12 20 21
20 23 0 96 50 96 66 0 19 32 34 72 34 38 0 52 8 61 32 5 14 1 18 -19 18 l-26
0 23 21 c16 13 20 22 12 25 -7 3 -15 21 -19 39 -6 32 -20 45 -54 50 -8 1 -32
18 -53 38 -21 21 -43 37 -48 37 -13 0 -11 27 3 49 16 26 -5 51 -44 51 -50 0
-121 22 -156 47 -36 27 -112 125 -112 145 0 7 -9 19 -20 26 -11 7 -20 21 -20
32 0 12 -6 23 -14 26 -8 3 -13 17 -12 35 2 31 -8 47 -18 30 -7 -11 -46 -2 -46
11 0 5 -6 6 -12 1 -14 -8 -64 -14 -113 -14 -16 0 -48 0 -70 -1 -22 -1 -55 -1
-72 0 -18 1 -39 1 -45 2 -7 0 -31 -3 -52 -6 -35 -6 -38 -5 -32 12 7 17 6 17
-13 0 -12 -11 -21 -14 -26 -7 -4 7 -15 5 -32 -6 -14 -9 -39 -16 -54 -15 -16 1
-29 -1 -29 -5 0 -5 -12 -9 -27 -11 -27 -2 -240 -3 -353 -1 -64 1 -146 -31
-155 -62 -4 -10 -11 -19 -16 -19 -5 0 -9 -10 -9 -23 0 -23 -38 -64 -54 -59 -5
2 -15 -6 -23 -17 -24 -35 -72 -36 -142 -2 -56 27 -74 30 -199 36 -75 3 -141 6
-147 6 -84 -3 -151 -10 -200 -20 -68 -13 -173 -24 -225 -23 -75 2 -357 0 -395
-2 -22 -1 -64 -3 -93 -4 -45 -2 -55 -5 -59 -22 -3 -11 -13 -20 -23 -20 -10 0
-20 -7 -24 -15 -3 -8 -2 -14 2 -14 4 1 18 0 32 -1 25 -3 -6 -9 -116 -25 -39
-6 -51 -12 -50 -24 1 -22 -41 -27 -64 -6 -16 15 -18 14 -24 -7 -5 -14 -9 -18
-13 -10 -2 6 -11 12 -19 12 -8 0 -14 5 -14 11 0 6 -7 9 -15 5 -8 -3 -18 0 -22
7 -9 14 -56 43 -95 60 -16 6 -28 15 -28 19 0 4 -7 5 -15 2 -8 -4 -13 -10 -10
-14 3 -5 -2 -16 -12 -25 -14 -14 -14 -18 -2 -27 10 -6 7 -7 -11 -3 -39 11 -42
11 -47 -2 -3 -7 2 -13 11 -13 9 0 16 -4 16 -9 0 -11 -32 -23 -51 -19 -8 2 -13
-3 -12 -9 2 -7 -4 -13 -12 -13 -8 0 -15 -4 -15 -10 0 -5 7 -10 15 -10 21 0 19
-16 -3 -25 -16 -7 -15 -8 3 -15 17 -7 17 -9 3 -9 -10 -1 -18 -9 -18 -19 0 -10
-4 -22 -9 -27 -5 -6 -12 -20 -16 -32 -5 -17 -2 -23 9 -23 9 0 16 -9 16 -20 0
-23 -4 -24 -31 -10 -20 11 -26 45 -9 55 17 11 -1 27 -23 21 -36 -9 -54 10 -66
74 -7 33 -16 60 -22 60 -5 0 -9 7 -9 15 0 8 -17 32 -38 54 -21 22 -36 45 -34
51 6 16 -57 67 -91 74 -48 10 -111 6 -128 -7 -34 -27 -53 -76 -63 -169 -1 -3
-4 -10 -8 -14 -4 -4 -3 -13 3 -21 9 -9 8 -17 0 -27 -7 -8 -11 -43 -11 -77 0
-35 -2 -77 -5 -94 -17 -84 -5 -289 20 -335 23 -43 34 -210 16 -244 -7 -12 -10
-39 -7 -61 2 -22 5 -50 5 -62 l1 -23 915 0 c883 0 915 1 915 18 0 11 -9 27
-20 37 -21 19 -27 45 -10 45 22 0 25 2 37 23 6 12 14 21 17 20 15 -7 26 -2 26
12 0 12 4 13 19 6 10 -6 21 -8 24 -5 12 12 105 14 177 3 111 -16 142 -37 142
-95 0 -19 -6 -41 -12 -49 -11 -13 524 -15 4478 -15 4475 0 4491 0 4497 20 3
11 3 24 0 30 -3 5 -7 54 -9 107 -2 54 -6 112 -10 128 -6 29 -6 29 6 5 l11 -25
5 24 c2 13 -2 27 -8 31 -9 6 -9 9 1 13 11 4 11 6 1 6 -17 1 -5 21 12 21 9 0
16 -21 20 -63 4 -34 18 -93 31 -131 25 -75 24 -89 -18 -135 l-27 -31 1062 1
c1036 1 1062 1 1024 19 -22 10 -44 26 -49 36 -14 25 -26 84 -17 84 4 0 11 8
14 17 11 31 31 58 46 62 86 23 122 23 188 0 37 -13 76 -29 87 -36 11 -7 27
-13 37 -13 10 0 18 -6 18 -13 0 -8 10 -19 23 -26 27 -14 30 -47 7 -73 -16 -18
-85 -44 -135 -51 -16 -2 221 -4 528 -3 469 1 559 3 566 15 8 12 12 12 26 -2
15 -16 18 -15 37 3 22 20 34 23 78 21 17 -1 21 1 12 7 -11 7 -11 11 0 19 7 6
18 12 23 14 6 2 39 36 74 74 94 102 141 126 271 135 58 4 117 13 133 20 l27
13 0 568 c0 329 -4 578 -9 592 -6 14 -12 75 -15 135 -4 61 -15 155 -27 209
-14 64 -24 164 -29 288 -8 171 -26 381 -35 395 -6 10 -19 214 -18 270 3 77 10
100 36 109 32 12 56 -4 78 -52 19 -42 19 -40 19 471 l0 512 -22 1 c-13 0 -52
2 -88 3 -36 2 -189 6 -340 9 -323 8 -547 16 -645 22 -66 4 -194 10 -440 21
-60 3 -153 0 -205 -6 -52 -6 -110 -12 -128 -14 -17 -1 -35 -6 -39 -9 -23 -24
-96 11 -98 46 -2 19 -36 90 -52 108 -8 10 -15 32 -15 50 -1 42 -25 90 -33 68
-3 -9 -1 -28 5 -43 5 -15 10 -40 10 -56 0 -16 5 -32 10 -35 5 -3 10 -19 10
-36 0 -19 10 -38 31 -58 29 -29 30 -30 12 -50 -9 -12 -27 -21 -39 -21 -40 0
-46 -38 -55 -345 -4 -159 -8 -377 -8 -482 -1 -189 -1 -193 21 -207 13 -7 40
-17 61 -20 l38 -7 -3 -262 -3 -262 -145 -3 c-79 -1 -148 -6 -152 -10 -4 -4
-18 -57 -32 -119 -23 -97 -25 -119 -15 -163 13 -62 25 -68 136 -71 94 -2 135
-13 167 -42 24 -22 52 -110 41 -128 -4 -5 -26 -9 -51 -9 -57 0 -57 -17 0 -25
l44 -7 1 -100 c1 -78 -1 -99 -11 -96 -7 3 -35 47 -63 99 -61 115 -71 95 -16
-29 23 -49 41 -94 41 -100 0 -6 -10 -14 -22 -18 -31 -10 -323 -6 -423 6 -44 5
-116 12 -159 16 -73 6 -83 9 -114 40 -19 19 -32 34 -27 34 4 0 -4 9 -18 20
-14 11 -30 20 -36 20 -15 0 -61 22 -61 29 0 4 37 6 82 6 48 0 83 4 85 11 2 5
-39 30 -92 54 -52 24 -95 47 -95 51 0 19 181 -28 195 -52 10 -16 25 -10 25 10
0 10 -7 37 -15 60 -8 23 -12 48 -8 57 5 13 8 13 26 -3 20 -17 20 -17 12 2 -4
11 -11 43 -15 70 -3 28 -14 64 -23 82 -16 30 -16 35 1 80 17 44 21 48 47 45
38 -4 39 -6 25 -32 -16 -29 -6 -50 24 -50 22 0 27 9 55 98 41 128 53 188 49
241 -2 37 1 45 19 52 12 4 24 17 28 28 3 12 12 21 18 21 16 1 50 30 70 60 21
33 8 55 -27 46 -33 -8 -66 9 -66 34 0 16 7 20 31 20 23 0 30 4 25 15 -3 8 1
30 9 49 8 19 18 59 23 90 7 45 6 56 -5 56 -7 0 -32 12 -54 26 -57 35 -104 27
-125 -21 -7 -19 -25 -45 -38 -58 -13 -13 -35 -42 -50 -64 -20 -30 -32 -40 -47
-36 -10 3 -19 0 -19 -6 0 -6 5 -11 10 -11 6 0 10 -5 10 -11 0 -6 -7 -8 -16 -5
-23 9 -47 -13 -34 -29 8 -10 6 -15 -9 -20 -18 -6 -26 -22 -22 -47 0 -5 -3 -8
-9 -8 -5 0 -7 -7 -3 -15 6 -18 -23 -55 -44 -55 -7 0 -52 -41 -100 -90 -51 -53
-90 -87 -96 -81 -5 5 -5 16 1 27 39 73 66 140 67 162 0 18 7 30 23 37 12 5 22
13 22 18 0 4 11 19 25 33 19 18 24 31 19 50 -3 13 -2 24 4 24 5 0 12 9 15 20
3 11 13 23 24 27 23 9 42 33 43 56 0 9 7 17 15 17 8 0 15 4 15 9 0 6 -65 8
-162 6 -156 -4 -158 -3 -53 5 159 13 198 22 205 45 11 41 41 72 83 85 23 7 46
17 51 21 4 4 17 -2 28 -13 26 -26 49 -8 44 35 -4 36 -21 47 -29 17 -4 -16 -13
-20 -49 -20 -42 1 -43 1 -17 15 14 7 30 25 37 39 13 30 20 27 -118 47 -47 7
-76 15 -66 17 11 2 52 -1 92 -8 41 -6 89 -8 111 -4 l38 8 -30 7 c-16 4 -55 8
-85 9 l-55 3 45 7 c46 7 105 28 82 29 -8 1 -11 16 -8 51 3 28 0 50 -5 50 -5 0
-9 7 -9 15 0 25 43 17 67 -13 l22 -27 25 27 c15 15 26 32 26 39 0 6 6 9 13 6
19 -7 57 11 57 28 0 12 -6 14 -27 8 -61 -16 -122 6 -72 26 13 5 18 10 11 10
-23 1 -10 55 16 66 31 13 28 25 -7 25 -35 0 -50 17 -58 64 -5 35 -7 36 -47 36
l-41 -1 27 -16 c22 -14 27 -23 23 -46 -3 -15 -10 -36 -16 -45 -8 -12 -7 -34 4
-79 8 -34 12 -65 9 -68 -11 -11 -42 -4 -86 21 -42 23 -47 30 -45 51 1 9 -60
33 -86 33 -12 0 -30 9 -40 20 -19 21 -19 21 16 19 39 -3 79 8 79 22 0 5 -28
10 -62 11 -35 0 -48 3 -28 5 58 6 81 13 75 23 -3 6 -17 10 -30 10 -30 0 -55
10 -55 21 0 5 35 9 78 10 52 0 71 3 57 9 -11 5 -32 9 -47 9 -16 1 -28 5 -28 9
0 17 56 35 120 39 52 4 68 2 79 -11 18 -22 34 -20 26 3 -10 33 18 44 103 38
89 -6 142 -23 142 -44 0 -8 11 -33 24 -56 13 -23 27 -53 31 -67 4 -14 14 -33
23 -43 13 -15 16 -50 16 -205 1 -160 -2 -195 -18 -244 -16 -45 -17 -62 -9 -81
9 -20 8 -29 -4 -47 -20 -28 -6 -42 38 -38 24 2 37 11 50 33 16 27 18 90 24
670 6 584 15 843 31 902 9 32 41 25 48 -11 5 -21 9 -27 17 -19 31 31 69 -29
69 -109 0 -20 7 -53 16 -73 9 -23 16 -69 16 -114 1 -96 13 -136 22 -71 4 36
15 388 16 533 l0 29 980 -7 980 -8 0 87 0 86 -1329 0 c-876 0 -1332 3 -1336
10 -7 12 -4161 14 -4168 3 -3 -5 -157 -5 -344 -1 -186 4 -513 7 -728 5 l-390
-2 -13 -27 c-11 -24 -19 -28 -57 -28 -36 0 -48 5 -61 25 l-16 25 -273 0 -274
0 -11 -55 c-19 -90 -14 -100 48 -102 32 -1 61 -8 71 -17 13 -12 48 -16 166
-18 96 -2 148 -7 145 -13 -3 -6 -83 -10 -208 -10 -186 0 -202 -1 -202 -17 0
-13 9 -18 33 -19 98 -2 121 -5 124 -16 4 -10 -17 -13 -80 -13 l-85 0 -21 -36
c-11 -19 -24 -54 -28 -76 -3 -23 -12 -53 -20 -67 -17 -35 -16 -49 5 -54 15 -4
15 -5 0 -6 -9 -1 -21 -15 -28 -35 -16 -49 2 -76 51 -76 24 0 39 -5 43 -15 4
-11 -2 -15 -22 -15 l-27 0 -1 -125 c0 -118 1 -124 20 -127 30 -4 26 -22 -5
-26 -20 -2 -37 -18 -62 -56 -32 -48 -36 -61 -37 -127 -1 -41 1 -94 5 -119 4
-26 2 -68 -5 -100 -7 -30 -13 -77 -15 -105 -1 -27 -5 -65 -9 -83 l-8 -32 288
0 c189 1 290 -2 297 -9 8 -8 -77 -11 -284 -11 l-296 0 -11 -39 c-7 -21 -12
-52 -12 -69 0 -21 -10 -41 -31 -63 -25 -26 -30 -37 -25 -62 3 -16 6 -33 6 -38
0 -5 172 -9 385 -9 l385 0 14 23 c13 19 15 111 16 612 1 325 4 649 7 722 5
115 8 132 24 136 10 3 21 2 24 -2 4 -3 12 -6 18 -6 16 0 13 -283 -12 -896 -10
-267 -17 -497 -14 -512 11 -57 3 -56 469 -67 527 -12 566 -15 591 -42 10 -11
30 -26 45 -34 35 -18 35 -29 1 -47 -23 -12 -161 -87 -260 -142 -13 -6 -19 -16
-15 -20 4 -5 2 -5 -5 -1 -7 4 -20 2 -30 -3 -10 -5 -39 -19 -65 -30 -31 -14
-57 -35 -77 -63 -16 -24 -59 -72 -96 -108 -37 -36 -97 -101 -133 -145 -109
-130 -116 -135 -181 -135 -52 0 -260 -26 -267 -33 -2 -2 54 -13 124 -26 70
-12 146 -27 169 -33 25 -6 68 -7 105 -3 35 4 119 7 188 7 122 -1 124 -1 95 16
-24 14 -54 17 -147 16 -65 -1 -118 0 -118 1 0 2 29 29 64 60 64 56 64 56 98
42 18 -8 39 -12 47 -9 12 4 121 -94 121 -110 0 -4 -8 -8 -17 -9 -10 -1 -1 -6
20 -13 21 -6 38 -15 38 -19 -1 -4 -1 -21 -1 -38 l0 -32 -72 9 c-40 4 -118 7
-173 6 -69 -1 -126 4 -185 18 l-85 19 70 -4 c62 -4 66 -3 30 6 -47 12 -72 16
-185 30 -135 17 -444 79 -451 91 -4 6 -11 8 -16 5 -6 -4 -36 -2 -68 3 -68 11
-78 8 -38 -14 35 -19 25 -19 -57 -1 -81 18 -110 19 -110 3 0 -7 -11 -18 -25
-25 -23 -10 -25 -9 -25 11 0 31 -30 56 -67 56 -39 0 -89 -50 -103 -101 -6 -20
-19 -48 -31 -63 -20 -25 -121 -96 -137 -96 -4 0 -5 -38 -4 -84 5 -114 -3 -127
-71 -120 -28 3 -79 6 -112 8 -33 2 -86 6 -117 9 -35 4 -58 2 -58 -4 0 -5 -10
-3 -23 6 -17 11 -31 12 -54 6 -17 -5 -33 -8 -35 -6 -6 6 -110 18 -170 20 -32
1 -60 4 -64 7 -3 3 -47 4 -98 1 -75 -4 -96 -3 -107 10 -10 11 -20 12 -38 6
-16 -7 -29 -5 -40 3 -14 12 -14 11 -2 -4 12 -16 10 -19 -14 -28 -23 -9 -30 -7
-44 8 -11 14 -25 18 -48 15 -27 -4 -31 -2 -28 13 2 11 4 19 5 19 1 0 3 8 5 17
4 22 -54 45 -67 26 -6 -10 -10 -10 -18 2 -5 8 -10 11 -10 6 0 -5 -8 2 -18 15
-25 32 -32 75 -22 129 5 25 11 302 14 615 3 314 9 696 12 850 3 154 7 334 9
400 3 136 -11 181 -62 204 -20 9 -124 16 -348 22 -176 4 -354 10 -395 13 -41
2 -167 7 -280 11 -113 3 -212 8 -220 10 -15 4 -317 18 -354 17 -11 -1 -24 6
-30 14 -8 11 -41 16 -131 19 -66 3 -122 5 -125 6 -3 0 -30 2 -60 3 -30 2 -79
5 -107 7 -29 3 -54 2 -55 -1 -2 -4 -14 -3 -28 1 -24 7 -24 7 -2 8 12 1 22 5
22 9 0 5 11 14 24 22 21 11 27 10 42 -4 9 -9 19 -14 23 -10 3 4 0 9 -7 11 -6
3 -10 9 -6 14 8 14 24 0 24 -21 0 -13 5 -17 20 -13 11 3 21 10 22 17 0 6 2 16
2 21 4 30 36 48 36 20 0 -8 5 -15 11 -15 6 0 17 -7 26 -16 9 -8 22 -13 30 -10
8 3 21 6 29 6 9 0 12 5 8 11 -3 6 -14 9 -24 6 -13 -3 -17 0 -13 10 6 15 28 14
66 -2 13 -5 17 -2 17 11 0 11 3 15 8 8 4 -6 15 -14 26 -17 16 -6 16 -10 5 -24
-13 -15 -11 -16 10 -10 14 3 32 1 40 -6 14 -10 14 -10 3 5 -8 10 -11 26 -7 38
7 23 21 26 28 8 4 -10 8 -10 15 1 9 12 14 12 36 -2 l25 -17 16 52 c8 28 15 55
15 60 0 5 12 26 26 48 22 32 28 57 35 142 4 57 8 116 9 132 0 20 11 39 36 62
l35 34 -689 0 -689 0 5 -26 c3 -19 1 -25 -7 -20 -6 4 -11 16 -11 26 0 17 -9
19 -131 18 l-130 -1 3 -27 c1 -15 -5 -39 -15 -53 -16 -25 -16 -27 8 -51 14
-14 25 -20 25 -14 0 6 3 8 6 5 4 -4 1 -13 -5 -21 -8 -10 -9 -16 -1 -21 15 -9
12 -25 -5 -25 -8 0 -15 -4 -15 -10 0 -5 8 -10 19 -10 10 0 24 -7 31 -15 7 -9
19 -14 27 -11 7 3 13 1 13 -4 0 -6 -4 -10 -10 -10 -5 0 -10 -6 -10 -14 0 -8
-10 -22 -22 -30 -12 -9 -17 -16 -11 -16 24 0 43 13 44 29 0 10 2 11 6 4 2 -7
14 -13 26 -13 20 -1 20 -2 5 -11 -22 -12 -24 -39 -3 -39 8 0 15 -4 15 -10 0
-5 7 -10 15 -10 8 0 15 5 15 10 0 6 -7 10 -15 10 -21 0 -19 17 4 30 25 13 34
13 26 -1 -4 -6 1 -17 11 -25 14 -11 15 -17 7 -20 -7 -3 -13 -16 -13 -29 0 -19
8 -26 37 -34 30 -9 39 -8 45 4 5 7 22 13 38 13 32 -1 43 -18 12 -18 -15 0 -18
-6 -14 -32 5 -33 5 -33 -16 -14 -12 10 -28 16 -36 13 -9 -4 -18 -2 -21 4 -4 5
-11 7 -16 3 -5 -3 -7 -9 -4 -14 3 -4 -2 -13 -10 -20 -21 -18 -19 -29 9 -36 14
-3 27 -11 29 -17 3 -9 -17 -12 -69 -12 -41 0 -74 3 -74 6 0 3 12 12 28 20 52
27 54 34 30 81 -18 34 -23 39 -26 23 -2 -11 -8 -25 -14 -32 -6 -7 -2 -16 12
-26 20 -14 20 -14 -10 -27 -23 -10 -33 -10 -44 0 -11 8 -20 9 -33 1 -10 -6
-12 -11 -5 -11 19 0 14 -39 -5 -39 -10 0 -38 -2 -63 -5 -69 -7 -157 -7 -244
-2 -60 4 -82 9 -89 22 -8 13 -11 14 -18 3 -5 -9 -6 1 -3 23 5 29 2 41 -16 60
-17 17 -21 19 -17 6 4 -10 2 -18 -5 -18 -7 0 -6 -5 2 -15 7 -8 10 -25 6 -38
-5 -21 -11 -24 -56 -24 -44 0 -48 2 -37 16 7 9 2 8 -11 -3 -34 -29 -37 -12 -8
39 37 62 74 76 210 81 60 2 111 6 114 8 2 3 -4 18 -14 35 -15 25 -15 32 -4 46
7 8 10 18 7 22 -4 3 -9 -2 -13 -11 -8 -20 -24 -21 -24 -1 0 25 34 36 59 19 27
-19 34 -14 34 26 0 34 -7 45 -23 35 -8 -5 -8 -11 1 -21 15 -18 4 -31 -14 -16
-8 7 -17 9 -20 5 -4 -3 -7 -1 -7 5 0 6 11 18 24 27 28 19 25 65 -5 65 -11 0
-19 5 -19 11 0 6 8 8 18 5 30 -10 25 40 -7 54 l-26 12 33 13 c31 14 42 38 22
50 -5 3 -10 11 -10 17 0 6 10 3 21 -8 21 -19 21 -19 18 1 -4 20 -13 20 -1499
23 -1141 2 -1500 -1 -1518 -10 -17 -9 -25 -9 -34 0 -9 9 -98 12 -324 12 l-312
0 10 -28 c22 -57 -12 -109 -53 -84 -20 13 -23 10 -33 -30 -3 -16 -11 -28 -18
-28 -6 0 -16 -8 -23 -17 -11 -15 -14 -8 -20 47 -4 36 -6 70 -4 75 1 6 -1 22
-5 38 l-8 27 -284 0 -284 0 0 -219 c0 -179 3 -221 15 -231 8 -6 19 -9 24 -5 6
3 19 1 28 -4 13 -8 -10 -10 -84 -11 -62 0 -103 4 -103 10 0 6 11 10 24 10 32
0 35 14 32 145 -2 61 -4 154 -5 208 l-1 97 -195 0 c-123 0 -195 -4 -195 -10 0
-5 -11 -10 -24 -10 -14 0 -28 5 -31 10 -8 13 -340 13 -365 0 -13 -7 -21 -7
-25 0 -3 5 -13 10 -21 10 -11 0 -14 -22 -14 -121z m11088 -41 c-2 -19 1 -22
22 -20 14 2 30 8 37 13 18 16 200 9 214 -7 13 -16 139 -20 139 -4 0 6 14 10
30 10 17 0 30 -4 30 -10 0 -6 38 -10 95 -10 57 0 95 4 95 10 0 6 8 11 18 12 9
1 -32 5 -93 8 -66 4 28 7 235 7 190 0 370 -3 400 -8 32 -4 -68 -6 -235 -3
-272 5 -289 4 -267 -12 28 -19 46 -21 330 -25 l212 -4 -3 -35 c-4 -30 -8 -35
-32 -38 -21 -3 -25 -6 -14 -12 11 -7 10 -11 -6 -17 -34 -13 -27 -42 11 -49 34
-6 79 -58 67 -77 -3 -5 -167 -6 -379 -1 -269 5 -374 4 -374 -4 0 -7 13 -9 32
-7 17 2 35 2 39 -1 13 -8 -2 -34 -19 -34 -8 0 -13 -2 -10 -5 3 -3 33 -7 67 -9
67 -4 77 -8 66 -26 -5 -7 -34 -10 -86 -7 -44 2 -82 0 -85 -5 -3 -4 -16 -8 -28
-8 -29 0 -56 -27 -35 -34 8 -3 61 -7 119 -10 158 -9 230 -17 230 -28 0 -5 -43
-8 -100 -7 -55 1 -100 -2 -100 -7 0 -5 15 -10 35 -12 19 -2 35 -7 35 -13 0
-10 -21 -13 -57 -10 -26 2 -31 -17 -8 -26 14 -5 14 -8 -1 -24 -17 -18 -15 -19
55 -19 54 0 72 -3 68 -12 -3 -10 -29 -12 -95 -10 -79 3 -92 1 -92 -12 0 -10
-9 -16 -25 -16 -14 0 -25 -4 -25 -10 0 -11 20 -14 58 -11 14 1 22 -4 22 -14 0
-8 -7 -15 -16 -15 -8 0 -12 -4 -9 -10 3 -5 24 -10 46 -10 21 0 39 -4 39 -10 0
-11 -17 -13 -63 -10 -18 1 -34 -6 -45 -20 -9 -12 -28 -23 -42 -24 -14 -2 -32
-7 -41 -10 -12 -5 -15 1 -15 31 1 21 5 44 9 51 5 7 3 14 -6 18 -12 4 -13 12
-6 37 11 37 14 201 4 217 -4 6 -1 18 6 26 17 21 18 112 1 119 -8 3 -18 3 -23
-1 -5 -3 -9 4 -9 16 0 21 3 22 123 19 l122 -4 3 61 3 61 -107 6 c-59 4 -186 7
-283 7 -149 0 -180 -3 -201 -17 -21 -15 -23 -15 -17 -1 4 11 -2 17 -19 21 -22
4 -24 1 -25 -32 -1 -20 -2 -47 -4 -61 -1 -14 -5 -124 -9 -245 -3 -121 -11
-371 -17 -555 -8 -207 -9 -346 -3 -363 9 -26 11 -27 29 -13 17 13 18 18 8 35
-17 27 -16 31 3 31 9 0 18 -9 21 -20 5 -17 14 -20 59 -20 30 0 54 -4 54 -9 0
-5 -23 -8 -50 -7 -31 2 -54 -2 -61 -10 -13 -16 39 -19 343 -23 l227 -2 6 23
c3 13 6 68 8 123 3 91 3 88 5 -32 l2 -133 188 -1 c103 0 203 -2 222 -4 19 -1
67 -3 107 -4 l71 -1 0 -36 0 -35 -276 6 c-153 4 -287 8 -299 10 -12 2 -188 7
-391 11 l-370 7 -4 28 c-5 29 -3 31 42 33 35 1 37 20 3 24 -15 2 -31 7 -35 11
-5 4 -1 167 7 361 8 195 17 445 21 555 4 110 8 207 10 215 1 8 3 59 3 113 1
63 5 96 11 92 6 -4 10 5 10 19 0 20 5 26 21 26 15 0 20 -5 17 -22z m5777 -40
c2 -7 6 -26 7 -43 l3 -30 -177 0 c-103 0 -183 4 -191 10 -8 6 -17 20 -21 33
-4 12 -12 22 -17 22 -5 0 -9 5 -9 10 0 16 399 13 405 -2z m-14975 -163 c7 -8
10 -32 8 -55 l-4 -41 301 5 c165 4 355 9 421 12 117 5 122 4 127 -16 7 -27
-22 -43 -60 -31 -43 14 -1370 24 -1378 11 -5 -7 -11 -8 -19 -1 -6 5 -31 11
-55 12 -23 2 -44 6 -46 9 -2 4 78 7 178 7 100 1 191 2 202 2 12 1 26 14 35 34
21 45 50 43 73 -5 l19 -38 96 1 c53 1 87 4 74 6 -13 3 -28 15 -34 29 -23 49
29 99 62 59z m14923 -9 c3 -8 3 -17 0 -20 -4 -3 -56 -6 -117 -7 -76 0 -102 -3
-83 -9 15 -5 53 -9 85 -9 32 0 71 -7 87 -15 29 -15 27 -16 -62 -16 -50 0 -95
-4 -98 -10 -4 -6 13 -10 43 -10 27 0 63 -7 81 -16 17 -9 38 -13 46 -10 8 3 15
1 15 -4 0 -6 -37 -10 -85 -10 l-84 0 -36 55 c-19 31 -35 60 -35 65 0 6 -5 10
-11 10 -5 0 -8 4 -4 9 3 6 61 10 129 10 97 1 125 -2 129 -13z m-5568 -46 c3
-5 33 -10 66 -10 46 0 59 -3 59 -15 0 -15 -15 -19 -57 -15 -12 1 -31 -4 -42
-9 -13 -7 -22 -8 -26 -1 -3 5 -13 10 -22 10 -10 0 -13 -5 -8 -17 4 -10 8 -25
9 -32 4 -21 26 -26 26 -7 0 19 60 22 78 4 8 -8 12 -9 12 -1 0 19 129 14 151
-5 25 -21 24 -36 0 -22 -13 6 -22 7 -26 0 -8 -13 -36 0 -28 14 3 6 -3 3 -14
-7 -11 -9 -26 -15 -34 -12 -8 3 -56 6 -108 8 -83 2 -97 0 -113 -17 -10 -11
-18 -24 -18 -30 0 -5 -3 -7 -6 -4 -3 4 0 17 7 29 15 29 18 59 7 82 -6 12 -5
17 7 17 8 0 15 -5 15 -11 0 -6 9 -1 19 12 11 13 15 26 10 27 -13 5 -1 22 16
22 8 0 17 -4 20 -10z m-7315 -345 c548 -12 1255 -25 1575 -30 346 -5 965 -17
1830 -35 264 -6 584 -11 710 -12 127 -1 270 -4 318 -7 118 -8 121 -12 112
-148 -3 -56 -10 -116 -15 -132 -4 -17 -7 -38 -6 -48 2 -9 -3 -28 -11 -42 -7
-15 -13 -32 -13 -38 0 -22 -17 -14 -24 10 -3 12 -6 45 -6 74 0 28 -3 54 -8 57
-4 2 -161 8 -350 12 l-342 7 -15 -36 c-8 -20 -15 -51 -15 -70 0 -40 -15 -57
-51 -57 -23 0 -32 10 -70 85 l-43 85 -78 0 c-74 0 -78 -1 -84 -24 -8 -33 2
-46 34 -46 29 0 72 -25 72 -41 0 -6 9 -30 20 -54 11 -25 21 -68 21 -99 1 -49
5 -58 35 -84 34 -31 37 -59 8 -83 -20 -16 -18 -29 11 -71 30 -44 33 -98 7
-121 -10 -10 -41 -24 -69 -32 -27 -8 -58 -24 -68 -35 -26 -29 -73 -27 -85 5
-5 14 -15 25 -22 25 -7 0 -23 3 -35 6 -23 6 -23 6 -7 -32 19 -44 26 -182 11
-201 -5 -7 -27 -13 -48 -13 -21 0 -48 -5 -61 -10 -32 -15 -68 -79 -57 -105 17
-44 10 -76 -26 -112 -23 -23 -41 -33 -51 -29 -13 5 -15 2 -9 -16 3 -13 9 -44
12 -70 3 -27 9 -48 14 -48 5 0 9 4 9 9 0 15 131 121 150 121 29 0 53 -30 47
-60 -8 -37 2 -47 56 -55 52 -8 57 -15 27 -45 -11 -11 -20 -27 -20 -37 0 -9
-11 -31 -25 -49 -30 -40 -31 -44 -5 -37 25 7 51 -13 43 -34 -5 -12 -17 -14
-67 -9 -34 4 -91 9 -128 11 -36 2 -80 10 -96 17 -45 19 -152 118 -152 140 0
10 -10 23 -22 28 -51 21 -77 60 -41 60 13 0 14 3 5 12 -8 8 -15 8 -27 -2 -10
-8 -15 -9 -15 -1 0 6 -11 13 -24 17 -14 3 -27 12 -30 20 -4 12 -9 11 -26 -6
-11 -11 -30 -20 -43 -20 -53 0 -157 141 -157 213 0 28 -10 45 -47 86 -60 66
-88 68 -98 10 -4 -23 -15 -47 -24 -55 -58 -50 -90 -74 -100 -74 -14 0 -14 -17
-1 -25 30 -19 -14 -121 -84 -195 -83 -87 -87 -97 -80 -194 4 -47 10 -86 13
-86 4 0 23 14 44 31 40 33 63 35 81 7 15 -25 -26 -183 -56 -215 -46 -49 -118
-11 -105 54 23 106 23 106 -24 72 -22 -15 -29 -28 -29 -54 0 -20 -9 -45 -23
-62 -13 -15 -35 -49 -50 -75 -41 -71 -68 -88 -141 -88 -33 0 -66 4 -72 8 -23
14 -73 121 -83 176 -6 31 -15 65 -21 75 -13 26 -13 83 1 118 17 42 12 102 -13
142 -12 20 -24 58 -27 86 -6 46 -8 50 -41 59 -19 5 -74 10 -122 10 l-88 1 -39
43 c-42 46 -91 134 -91 164 0 10 -6 28 -12 39 -10 17 -10 23 0 26 6 3 12 15
12 28 0 12 9 42 19 65 11 24 17 49 14 56 -3 8 10 22 31 35 28 16 36 27 36 49
0 27 -1 28 -37 20 -20 -5 -40 -7 -44 -4 -4 2 -10 0 -14 -6 -8 -13 -25 -13 -25
0 0 6 7 10 15 10 8 0 15 6 15 14 0 17 -51 36 -97 36 -18 0 -66 9 -105 20 -40
11 -92 20 -116 20 -23 0 -59 7 -80 16 -25 11 -75 18 -151 20 -63 2 -122 6
-132 9 -27 9 -57 -12 -74 -50 -7 -19 -20 -35 -27 -35 -7 0 -26 -11 -43 -24
l-30 -24 20 -22 c18 -20 26 -22 92 -16 65 5 72 4 78 -14 9 -29 -3 -42 -33 -35
-31 6 -127 -27 -127 -44 0 -6 25 -24 55 -40 56 -30 77 -64 48 -82 -21 -14 -75
-10 -88 6 -7 8 -19 15 -27 15 -8 0 -26 9 -40 20 -33 25 -69 26 -83 1 -14 -28
-12 -51 4 -51 24 0 46 -40 39 -71 -4 -24 -1 -30 20 -40 27 -12 29 -11 93 36 9
6 36 4 81 -8 38 -9 78 -14 90 -11 17 5 30 -3 55 -30 18 -20 49 -44 68 -54 23
-11 43 -33 60 -65 27 -53 48 -68 126 -92 61 -18 114 -63 114 -97 0 -13 -12
-41 -26 -62 -15 -21 -29 -60 -33 -89 -10 -75 -35 -116 -97 -166 -29 -24 -54
-49 -54 -57 0 -7 -14 -30 -32 -49 l-32 -37 -120 5 c-67 3 -129 9 -138 12 -20
8 -25 34 -33 160 -5 87 -6 91 -39 120 -19 17 -53 68 -77 115 -50 101 -53 149
-13 218 33 57 27 87 -20 96 -24 5 -45 20 -71 51 -20 25 -42 45 -49 45 -7 0
-25 9 -39 20 -14 11 -36 20 -50 20 -66 0 -137 59 -137 114 0 28 -24 56 -48 56
-19 0 -50 53 -78 132 -9 28 -24 50 -35 53 -33 11 -43 45 -40 144 2 59 10 117
23 159 17 57 18 71 8 103 -7 20 -10 49 -6 63 5 20 1 32 -17 49 -18 16 -22 27
-17 43 5 11 2 45 -4 75 l-12 54 -75 7 c-41 3 -189 9 -329 11 l-255 5 -3 103
c-2 75 1 105 10 111 12 9 170 7 878 -7z m-1640 -27 c107 1 203 -1 212 -4 21
-6 25 -53 6 -72 -16 -16 -794 -17 -804 -1 -4 6 -20 8 -39 5 -39 -8 -85 8 -85
28 0 21 31 36 77 37 21 1 49 5 63 9 14 5 104 6 200 2 96 -4 263 -6 370 -4z
m8914 -120 c5 -10 7 -10 12 0 4 8 29 12 74 12 71 0 93 -11 63 -30 -14 -8 -15
-13 -5 -17 10 -4 9 -9 -4 -24 -9 -11 -14 -22 -11 -26 4 -3 2 -12 -4 -20 -9
-10 -6 -13 15 -13 14 0 26 -5 26 -10 0 -7 -25 -9 -72 -5 -40 4 -97 6 -125 5
-60 -1 -60 -1 -47 94 6 44 8 46 40 46 18 0 35 -6 38 -12z m-8694 -28 c12 -19
12 -31 0 -50 -8 -13 -63 -15 -400 -14 -278 1 -394 5 -404 13 -8 7 -29 9 -54 5
-43 -7 -82 8 -82 31 0 29 49 32 538 31 338 -1 394 -3 402 -16z m9135 -10 c4
-7 39 -10 86 -9 44 1 82 -1 85 -4 13 -13 -59 -36 -97 -31 -34 5 -39 3 -39 -15
0 -11 -8 -25 -17 -31 -14 -8 -14 -10 -3 -9 29 3 41 -1 35 -11 -3 -5 -36 -10
-72 -10 -83 0 -106 16 -92 63 5 17 6 40 3 49 -5 16 2 18 50 18 30 0 58 -5 61
-10z m-420 -140 c4 -6 26 -10 51 -10 24 0 44 -4 44 -9 0 -9 73 -22 133 -24 24
0 37 -5 37 -14 0 -8 -3 -12 -7 -10 -5 3 -68 8 -141 11 -107 6 -133 4 -130 -6
3 -8 27 -14 69 -16 71 -3 89 -7 89 -21 0 -12 -89 -12 -112 0 -13 7 -20 4 -28
-12 -15 -27 -9 -32 22 -20 14 5 31 6 39 1 7 -5 25 -7 39 -4 20 4 22 3 10 -5
-13 -10 -13 -12 0 -21 10 -7 -11 -10 -71 -10 -65 0 -90 -4 -99 -15 -7 -8 -17
-15 -24 -15 -6 0 2 11 17 25 29 28 34 37 15 30 -15 -6 -40 42 -27 51 15 9 10
22 -12 29 -14 5 -18 12 -13 23 4 10 7 24 8 33 0 13 11 17 43 17 23 1 45 -3 48
-8z m662 -122 c272 -2 385 -6 394 -15 20 -20 -27 -34 -114 -33 -165 3 -218 0
-212 -10 4 -6 55 -10 121 -10 69 0 114 -4 114 -10 0 -6 -37 -10 -92 -10 -115
0 -228 10 -228 20 0 5 17 13 38 18 l37 10 -44 -1 c-27 -1 -46 4 -49 11 -2 7
-22 12 -48 12 l-44 0 -1 -102 c0 -57 -2 -116 -3 -132 -1 -15 3 -30 9 -31 13
-4 344 -15 463 -15 67 0 93 -3 90 -12 -4 -12 -166 -13 -430 -2 l-147 7 4 146
c2 83 1 129 -4 106 l-7 -40 -5 40 -4 40 -160 0 c-88 -1 -143 1 -122 3 40 3 51
21 15 23 -22 1 -22 1 2 8 16 5 29 3 35 -5 8 -10 101 -14 392 -16z m2028 -379
l-7 -270 23 -25 c12 -13 33 -24 46 -24 13 0 23 -4 23 -10 0 -5 5 -10 11 -10 5
0 7 5 4 10 -3 6 3 10 14 10 13 0 21 -6 21 -17 0 -15 -2 -16 -10 -3 -8 13 -10
13 -10 -2 0 -23 -18 -32 -35 -18 -9 7 -15 8 -15 2 0 -5 -3 -24 -6 -41 -5 -24
-3 -31 9 -31 24 0 30 -18 12 -36 -9 -9 -17 -15 -19 -13 -1 2 -10 15 -19 29
-11 16 -17 19 -17 9 0 -9 3 -19 7 -23 4 -3 8 -16 10 -28 3 -18 1 -19 -14 -7
-18 15 -18 15 2 -34 3 -7 -2 -13 -12 -13 -10 -1 -25 -4 -35 -8 -11 -5 -18 -2
-21 11 -3 12 -5 9 -6 -9 -1 -22 4 -28 19 -28 11 0 20 -5 20 -11 0 -8 4 -8 14
0 11 9 15 7 19 -8 6 -26 -15 -45 -31 -29 -6 6 -15 9 -19 5 -28 -28 86 -44 342
-46 132 -1 165 -7 165 -27 0 -7 -9 -38 -21 -68 -34 -91 -48 -96 -264 -86 -205
10 -283 21 -588 84 -121 24 -225 42 -233 39 -10 -4 -11 -10 -4 -23 8 -16 5
-18 -28 -19 -65 -1 -111 9 -106 24 7 17 -46 29 -93 20 -29 -5 -38 -3 -50 14
-8 12 -35 32 -61 46 -43 22 -45 24 -19 25 16 0 26 4 23 9 -8 12 17 21 62 22
26 1 17 4 -27 10 -75 10 -106 29 -47 29 32 0 37 2 27 14 -10 12 -10 20 0 38
12 21 15 44 18 119 1 20 12 32 50 52 48 27 51 27 237 26 104 -1 268 -4 364 -8
183 -7 226 -1 224 32 -1 9 2 15 6 12 17 -10 20 35 20 279 0 238 4 276 28 276
3 0 1 -122 -3 -271z m-1597 236 c6 -2 12 -14 12 -26 0 -21 -3 -21 -95 -17 -62
2 -94 0 -92 -6 2 -6 14 -13 28 -16 l24 -6 -22 -8 c-13 -4 -27 -5 -31 -2 -14 8
-260 11 -268 3 -15 -15 -44 -7 -44 12 0 11 -5 23 -10 26 -19 12 1 25 38 26 20
0 31 3 25 6 -7 2 -13 8 -13 11 0 7 426 4 448 -3z m1909 -181 c9 -20 9 -26 -3
-31 -33 -13 -9 -23 55 -23 68 0 171 -31 171 -52 0 -5 8 -7 18 -4 9 3 28 -2 42
-10 23 -13 16 -14 -80 -10 -58 3 -162 5 -232 5 -71 1 -128 5 -128 10 0 5 9 7
20 4 14 -4 20 0 20 10 0 10 -7 15 -20 12 -11 -2 -20 0 -20 6 0 5 14 9 30 9 32
0 104 32 115 50 4 6 -1 20 -11 31 -13 15 -14 19 -3 19 8 0 19 -12 26 -26z
m-12145 -206 c-18 -18 -15 -24 24 -68 34 -38 36 -43 29 -83 -4 -23 -7 -61 -7
-85 1 -29 -4 -45 -13 -49 -21 -8 -18 -26 6 -41 19 -12 19 -15 6 -30 -8 -9 -15
-34 -15 -55 0 -54 -13 -64 -90 -69 -87 -6 -115 3 -106 37 9 35 11 191 4 248
-4 26 -3 50 2 53 5 3 6 30 4 59 -3 32 -1 57 5 61 6 3 8 12 5 20 -4 11 10 14
76 14 64 0 79 -3 70 -12z m363 -7 c-3 -11 -1 -22 5 -26 17 -10 11 -25 -15 -37
-32 -14 -31 -25 5 -68 34 -39 36 -53 15 -104 -12 -29 -13 -41 -4 -58 10 -18 8
-24 -10 -39 -25 -20 -28 -39 -6 -39 23 0 30 -28 13 -48 -8 -9 -18 -25 -21 -34
-4 -11 -17 -18 -34 -19 -53 -2 -128 3 -133 8 -3 2 -6 35 -6 71 -1 37 -2 96 -3
132 -1 36 0 76 2 90 2 14 1 29 -2 34 -8 16 -7 57 1 62 4 2 1 25 -7 49 l-13 45
110 0 c103 0 109 -1 103 -19z m4853 -303 c7 -7 12 -26 12 -44 0 -20 13 -52 35
-85 40 -61 43 -81 15 -109 -42 -42 -69 -21 -111 90 -33 87 -38 123 -18 146 14
17 51 18 67 2z m4962 -145 c0 -1 -13 -24 -30 -51 -33 -54 -89 -103 -136 -119
-57 -20 -164 -98 -164 -120 0 -13 59 -33 76 -26 16 6 16 -17 -1 -29 -21 -16
-74 -8 -85 12 -6 11 -17 20 -25 20 -31 0 -12 28 55 80 25 19 62 44 83 54 20
11 37 24 37 29 0 6 3 8 6 5 6 -7 49 35 64 62 6 11 15 20 21 20 5 0 23 15 39
33 16 19 36 34 45 34 8 0 15 -2 15 -4z m-11596 -129 c19 -18 20 -28 6 -55 -10
-18 -23 -19 -206 -19 -161 0 -196 2 -200 15 -3 8 -15 17 -27 21 -21 7 -21 7
-2 16 11 5 31 15 45 23 38 22 362 21 384 -1z m6809 -66 c12 -6 37 -13 56 -15
19 -2 62 -18 94 -35 33 -18 71 -32 85 -33 34 0 53 -32 30 -49 -10 -7 -18 -18
-18 -24 0 -6 -5 -23 -12 -37 -11 -26 -51 -35 -63 -15 -3 6 -12 10 -20 10 -11
0 -10 -9 5 -42 11 -24 20 -51 20 -61 0 -10 11 -37 24 -60 54 -95 67 -189 35
-249 -10 -18 -21 -19 -212 -17 -111 1 -241 4 -289 7 -100 5 -98 4 -119 124 -6
37 -17 72 -25 79 -8 6 -14 16 -14 21 0 6 5 6 14 -1 10 -8 19 -6 39 9 14 12 47
30 73 41 25 12 65 40 88 64 22 24 55 47 71 51 17 4 41 15 54 26 25 19 76 24
99 9 7 -4 19 -25 27 -47 l13 -38 12 39 c11 39 11 41 -27 81 -21 22 -54 50 -74
62 -19 12 -44 30 -54 42 -17 19 -17 21 -1 39 10 11 28 22 40 24 11 2 22 5 24
6 2 0 13 -4 25 -11z m-779 -19 c20 -12 36 -27 36 -35 0 -7 10 -19 23 -25 28
-15 157 -141 157 -153 0 -6 29 -38 65 -73 57 -55 81 -94 58 -93 -17 1 -88 47
-86 56 3 13 -48 39 -77 39 -19 0 -26 6 -28 25 -5 36 -13 41 -72 48 -57 8 -88
34 -61 52 13 7 13 11 1 25 -7 9 -21 14 -31 12 -21 -6 -50 12 -32 20 17 6 -5
48 -42 83 l-27 25 29 6 c46 11 50 10 87 -12z m3924 -488 l74 -6 3 -88 c2 -69
0 -91 -12 -103 -13 -13 -17 -13 -24 -2 -6 9 -9 9 -9 1 0 -9 -8 -9 -30 -1 -22
7 -34 7 -44 -1 -9 -8 -16 -8 -20 -2 -4 5 -37 10 -74 10 -127 2 -229 8 -240 15
-8 5 -12 40 -12 97 l0 89 158 -1 c86 -1 190 -4 230 -8z m-4923 -1106 c59 -17
76 -19 55 -4 -12 8 -10 9 8 4 20 -6 166 -11 415 -14 52 -1 67 -4 67 -16 0 -8
9 -15 20 -15 10 0 30 -5 43 -11 18 -8 30 -8 46 0 14 8 27 9 39 2 13 -7 23 -6
31 2 10 9 15 8 26 -6 7 -10 15 -13 16 -8 3 7 19 6 49 -3 25 -7 57 -12 73 -10
15 1 27 -2 27 -8 0 -5 6 -8 14 -5 8 3 16 1 18 -5 2 -5 46 -12 100 -14 53 -2
108 -8 122 -14 18 -6 26 -6 26 1 0 6 6 7 13 2 6 -4 20 -6 30 -4 10 1 27 -5 37
-14 10 -9 24 -14 30 -10 6 4 26 -4 45 -16 27 -19 33 -29 29 -46 -5 -18 -2 -23
12 -24 11 0 14 -3 6 -6 -7 -3 -24 2 -37 11 -13 9 -32 16 -42 15 -12 -1 -10 -3
7 -9 18 -6 20 -8 7 -9 -10 -1 -25 -8 -34 -17 -9 -8 -22 -13 -29 -10 -8 3 -14
1 -14 -4 0 -6 -11 -10 -25 -10 -14 0 -51 -9 -82 -20 -58 -19 -193 -35 -193
-22 0 4 -125 7 -277 6 -267 -1 -597 15 -621 30 -7 4 -42 9 -79 12 -37 3 -79
12 -93 21 -28 18 -80 70 -80 81 0 4 -14 16 -31 26 -17 10 -27 21 -22 25 5 3 8
13 8 21 -1 29 51 79 98 95 50 17 88 17 142 0z m4881 -84 c13 10 17 10 24 0 5
-10 19 -12 44 -7 29 6 36 4 36 -9 0 -8 5 -15 10 -15 6 0 10 5 10 10 0 15 40
12 56 -5 20 -20 32 -19 37 3 3 10 5 6 6 -11 l1 -28 26 25 c24 21 33 23 88 18
33 -3 65 -10 69 -16 5 -7 7 -5 5 6 -2 9 2 17 7 17 6 1 10 -3 10 -8 0 -5 4 -13
9 -18 5 -4 6 -3 2 4 -9 16 24 25 82 23 26 -1 52 -1 57 0 6 1 37 1 70 0 41 -1
63 -6 68 -16 6 -11 23 -15 55 -14 85 3 92 2 85 -17 -6 -17 -5 -16 15 0 12 11
26 16 33 11 20 -12 71 -15 64 -4 -3 6 5 10 19 10 14 0 28 -5 31 -10 3 -5 -1
-10 -9 -10 -8 0 -17 -4 -20 -8 -3 -5 8 -6 24 -4 17 2 27 8 24 13 -3 5 -1 9 5
9 5 0 12 -6 14 -12 4 -10 8 -10 15 1 5 7 14 11 20 7 6 -3 13 -2 17 4 9 15 25
12 25 -4 0 -9 7 -12 23 -9 16 3 18 2 8 -5 -11 -8 -10 -12 8 -21 11 -7 21 -16
21 -22 0 -6 -5 -7 -11 -4 -6 4 -13 -2 -16 -14 -6 -23 -19 -28 -26 -8 -3 6 -6
1 -6 -12 -1 -16 -5 -21 -16 -17 -8 3 -15 1 -15 -3 0 -13 -83 9 -96 25 -9 12
-14 10 -27 -8 -13 -18 -18 -20 -25 -9 -5 7 -12 9 -15 4 -7 -11 -36 -11 -53 -1
-5 4 -26 3 -46 -1 -23 -6 -40 -5 -47 2 -8 8 -11 6 -11 -5 0 -14 -9 -16 -57
-12 -32 2 -70 7 -84 10 -16 3 -30 -1 -38 -10 -9 -11 -18 -13 -30 -7 -19 11
-109 26 -133 22 -9 -1 -19 2 -22 7 -3 5 -21 8 -41 6 -19 -1 -35 1 -35 6 0 5
-45 8 -100 7 -55 -1 -100 -4 -100 -7 0 -13 -110 0 -134 15 -14 10 -26 13 -26
7 0 -14 -89 -7 -120 10 -16 8 -25 21 -24 35 2 34 -9 42 -30 22 -11 -11 -14
-19 -8 -19 22 0 12 -25 -14 -37 -31 -14 -50 -7 -34 12 8 9 8 15 0 20 -17 11
-11 25 11 25 12 0 27 7 33 16 13 17 93 27 102 13 3 -5 10 -9 16 -9 7 0 6 5 -1
14 -10 12 -7 15 16 18 15 2 34 0 41 -5 7 -6 18 -5 28 4z"/>
<path d="M11770 4392 l0 -90 160 0 c100 -1 162 3 166 10 4 7 9 6 14 -2 5 -7
20 -9 44 -5 37 7 45 18 23 32 -13 9 -42 63 -39 76 1 4 -4 7 -12 7 -8 0 -17
-10 -19 -22 -2 -13 -5 -2 -6 25 l-1 47 -104 0 c-56 0 -131 3 -165 6 l-61 7 0
-91z"/>
<path d="M3107 3884 c-9 -10 -9 -102 1 -107 4 -3 174 -8 377 -11 204 -3 462
-8 575 -11 113 -3 360 -7 550 -10 190 -3 472 -8 628 -11 l284 -6 -27 26 c-21
21 -24 30 -16 45 10 18 5 19 -82 25 -92 5 -252 11 -612 21 -104 3 -417 12
-695 20 -853 24 -975 26 -983 19z"/>
<path d="M5923 3778 c-1 -13 -9 -28 -18 -34 -24 -18 40 -23 260 -23 105 0 332
-5 505 -10 356 -12 619 -18 1158 -28 401 -7 380 -9 366 44 -7 26 -49 30 -424
38 -146 4 -339 8 -430 10 -91 2 -331 6 -535 10 -203 3 -414 8 -467 11 -76 4
-98 3 -98 -7 0 -10 -3 -10 -12 -1 -18 18 -68 15 -68 -3 0 -8 -7 -15 -15 -15
-18 0 -20 16 -2 23 6 3 -40 6 -103 6 -113 1 -116 0 -117 -21z"/>
<path d="M4327 3672 c-29 -32 -21 -67 26 -111 66 -64 108 -67 106 -8 -1 18 2
51 6 73 7 40 6 42 -25 53 -49 16 -95 14 -113 -7z"/>
<path d="M4700 3664 c-8 -9 -24 -20 -37 -25 -23 -9 -34 -34 -10 -26 28 10 46
-13 53 -69 4 -37 15 -65 31 -85 18 -21 25 -41 25 -68 0 -21 5 -55 13 -77 13
-37 15 -39 52 -36 50 4 188 46 236 72 21 11 59 23 85 27 26 3 59 12 74 19 15
8 37 14 50 14 33 0 84 34 100 67 18 39 68 44 102 10 l24 -24 6 36 c3 20 6 48
6 63 0 14 11 40 25 56 14 17 25 33 25 36 0 3 -49 6 -110 6 -100 0 -112 -2
-146 -25 -20 -14 -45 -25 -55 -25 -30 0 -68 22 -75 42 -5 17 -15 18 -86 16
l-81 -3 -26 -50 c-22 -41 -32 -50 -56 -53 -39 -3 -73 24 -89 73 -14 39 -15 40
-68 43 -41 2 -58 -1 -68 -14z"/>
<path d="M4175 2913 c-31 -3 -55 -10 -62 -20 -17 -22 -16 -85 1 -108 12 -17
16 -17 31 -5 9 8 35 16 58 19 l42 6 -1 54 c0 60 2 59 -69 54z"/>
<path d="M6759 2650 c-9 -5 -22 -24 -30 -42 -7 -18 -17 -36 -23 -40 -6 -4 -2
-10 9 -14 34 -12 76 -46 72 -57 -2 -6 10 -24 26 -38 22 -21 35 -25 51 -20 18
7 21 16 21 61 0 49 -3 55 -30 70 -18 10 -31 26 -33 41 -7 44 -30 59 -63 39z"/>
<path d="M9430 4651 c-10 -4 -17 -22 -19 -51 -4 -55 -6 -60 -35 -60 -25 0 -66
-34 -66 -54 0 -8 7 -19 15 -26 14 -12 14 -15 -2 -32 -9 -10 -50 -37 -91 -60
-83 -46 -82 -69 2 -41 45 15 49 15 74 -4 33 -25 43 -59 43 -157 0 -61 -6 -90
-24 -130 -18 -39 -22 -58 -15 -81 5 -16 9 -61 9 -98 2 -75 -11 -106 -112 -273
-27 -45 -49 -85 -49 -88 0 -3 43 -6 95 -6 52 0 95 -3 95 -7 0 -5 -48 -9 -108
-11 -104 -2 -108 -3 -127 -30 -11 -15 -39 -48 -63 -74 l-44 -47 20 -53 c28
-77 46 -179 38 -221 -9 -46 -115 -204 -185 -274 -56 -56 -77 -63 -45 -16 12
18 18 47 18 83 1 30 5 58 10 62 11 8 -5 24 -64 63 -56 38 -62 44 -77 78 -12
27 -27 35 -37 19 -7 -12 34 -72 50 -72 8 0 14 -7 14 -15 0 -20 -56 -75 -75
-75 -11 0 -15 -11 -14 -43 1 -23 -3 -52 -9 -64 -9 -16 -9 -22 0 -25 8 -3 9
-12 0 -36 -8 -24 -8 -32 1 -32 7 0 6 -4 -3 -10 -8 -5 -10 -10 -4 -10 6 0 9
-10 7 -24 -5 -22 -1 -24 44 -31 43 -5 94 -24 69 -25 -6 0 -2 -6 7 -12 9 -7 18
-32 21 -54 2 -23 11 -52 19 -65 8 -13 23 -52 33 -87 14 -52 15 -69 5 -100 -15
-45 -15 -61 -1 -132 5 -30 11 -110 11 -176 l1 -121 272 -7 c149 -3 333 -9 409
-12 75 -4 137 -3 137 0 0 3 -24 17 -52 30 -59 26 -102 66 -80 74 10 3 7 11
-10 29 -18 20 -19 23 -4 17 10 -4 21 -2 25 3 3 6 17 14 30 18 18 6 22 4 15 -6
-4 -8 9 1 31 19 45 37 55 39 56 15 2 -32 17 30 18 73 l1 41 -52 7 c-29 3 -67
6 -85 6 -35 0 -65 33 -40 43 7 3 5 6 -6 6 -10 1 -22 13 -27 27 -14 35 -12 41
5 18 13 -17 14 -17 15 -1 0 16 5 19 39 21 22 2 24 22 5 41 -15 14 -15 18 -3
26 11 7 10 11 -7 23 -19 14 -20 19 -11 65 12 57 -1 111 -40 163 l-23 31 -20
-45 c-16 -37 -24 -45 -39 -41 -18 5 -20 15 -20 124 0 90 3 118 12 113 7 -4 3
2 -7 14 -11 12 -15 22 -10 22 5 0 9 24 8 52 0 29 3 68 8 87 7 24 6 36 -2 41
-10 6 -9 18 4 52 11 29 15 60 12 93 -9 93 -19 135 -30 135 -6 0 -3 5 7 11 10
6 14 15 10 22 -11 18 -13 38 -2 31 5 -3 9 0 9 6 0 7 7 9 16 6 9 -4 13 -2 8 5
-4 6 0 16 7 21 10 7 11 11 2 14 -8 4 -9 13 -3 28 4 12 5 41 0 64 -4 23 -4 44
-1 48 11 11 7 59 -6 73 -11 10 -14 44 -12 131 1 65 -2 123 -5 128 -3 6 0 13 6
16 10 5 10 7 1 12 -7 3 -13 10 -13 15 0 6 5 7 10 4 6 -3 10 1 10 9 0 8 -4 18
-10 21 -5 3 -10 15 -10 26 0 11 -7 19 -17 19 -13 0 -14 3 -5 12 9 9 8 14 -4
22 -13 10 -13 23 1 116 9 58 22 175 29 261 8 86 20 173 27 192 15 42 3 78 -21
68z m-306 -1814 c27 -44 89 -376 74 -394 -17 -21 -3 -110 28 -183 16 -36 32
-68 37 -71 5 -4 6 -16 2 -28 -4 -14 -1 -23 9 -27 9 -3 13 -10 10 -15 -3 -5 5
-9 18 -9 18 0 20 -2 8 -10 -12 -8 -11 -10 8 -10 20 0 27 10 23 33 0 4 3 7 9 7
6 0 10 -5 10 -12 0 -19 13 1 16 25 1 12 3 24 3 26 1 2 8 -2 16 -9 14 -11 14
-15 -2 -33 -15 -17 -13 -16 15 3 17 13 32 29 32 34 0 6 5 4 10 -4 14 -22 12
-53 -5 -87 -12 -23 -13 -37 -5 -58 16 -42 12 -85 -7 -92 -10 -4 -24 -13 -31
-20 -19 -18 -123 -18 -116 1 3 7 -3 22 -13 31 -14 14 -17 32 -15 74 3 68 -31
146 -63 146 -18 0 -20 -6 -19 -62 0 -35 -1 -63 -2 -63 -8 0 -34 75 -34 97 0
14 -8 37 -19 51 -12 19 -16 33 -10 47 12 31 11 35 -14 35 -21 0 -22 2 -17 70
5 62 3 70 -12 70 -10 0 -18 5 -18 10 0 6 3 10 8 10 4 0 7 44 7 98 0 105 24
352 34 352 3 0 15 -15 25 -33z"/>
<path d="M18105 4490 c-44 -4 -56 -8 -45 -15 17 -11 958 -24 1006 -14 16 4 23
7 16 8 -7 0 -10 6 -7 11 4 7 -66 11 -202 12 -445 3 -710 3 -768 -2z"/>
<path d="M18016 4399 c-9 -46 -7 -117 3 -123 5 -3 99 -7 210 -8 146 -2 204 1
213 10 9 9 8 12 -5 12 -10 0 -24 16 -34 38 -9 20 -19 40 -21 45 -2 4 6 7 19 7
12 0 20 3 16 6 -3 4 -18 4 -32 0 -17 -4 -25 -14 -26 -29 -1 -12 -5 -4 -9 18
-4 22 -6 43 -3 48 2 4 -70 7 -160 7 l-164 0 -7 -31z"/>
<path d="M17395 4370 c-10 -12 -25 -18 -32 -16 -7 3 -13 -1 -13 -9 0 -11 13
-15 49 -15 28 0 53 -4 56 -10 3 -5 44 -10 91 -10 82 0 102 -9 67 -29 -16 -9
-16 -10 5 -11 12 0 22 -5 22 -11 0 -7 -31 -10 -87 -9 -113 3 -113 3 -79 -15
15 -8 52 -15 81 -15 33 0 57 -5 64 -14 17 -20 4 -25 -84 -31 -43 -3 -81 -7
-83 -10 -6 -5 159 -10 216 -6 18 2 39 -2 47 -9 20 -17 27 3 23 63 l-3 52 128
3 c70 1 128 6 128 10 5 26 6 89 2 99 -4 10 -71 13 -293 13 -276 0 -288 -1
-305 -20z"/>
<path d="M18545 4370 c30 -8 18 -14 -20 -10 l-20 2 20 -15 c21 -16 17 -21 -30
-30 -40 -7 156 -17 428 -21 l277 -4 0 44 0 44 -342 -1 c-189 -1 -329 -5 -313
-9z"/>
<path d="M18833 4233 c-5 -12 -87 -14 -480 -12 -261 0 -477 -2 -480 -5 -4 -3
10 -6 30 -6 41 0 51 -21 20 -40 -14 -8 -7 -10 32 -9 90 2 97 0 93 -18 -3 -15
-19 -19 -111 -24 -94 -4 -110 -8 -130 -28 l-22 -22 75 1 c76 2 246 -8 288 -16
12 -2 22 -9 22 -14 0 -6 -47 -10 -117 -10 -116 0 -141 -8 -60 -20 23 -3 41
-10 40 -15 -1 -6 45 -11 105 -13 59 -1 166 -5 237 -8 72 -2 196 -6 277 -7 145
-2 147 -2 158 21 5 13 10 29 10 37 0 17 9 19 30 5 10 -6 11 -10 3 -10 -7 0
-13 -4 -13 -10 0 -6 67 -10 180 -10 l180 0 0 45 c0 41 -2 45 -24 45 -14 0 -28
-5 -31 -10 -4 -7 -64 -9 -168 -6 -179 6 -174 4 -158 71 7 33 9 35 10 13 1 -16
4 -28 9 -28 4 0 87 -3 185 -5 l177 -5 0 60 0 60 -42 1 c-206 8 -320 5 -325 -8z"/>
<path d="M0 4088 l0 -33 673 1 c369 0 680 1 690 2 17 2 24 36 10 45 -5 3 -315
8 -690 12 l-683 7 0 -34z"/>
<path d="M2133 4112 c-73 -1 -133 -4 -133 -7 0 -2 4 -15 10 -30 9 -24 14 -26
82 -26 40 0 168 -1 283 -2 207 -2 210 -2 213 19 2 12 -4 29 -13 37 -16 17 -46
18 -442 9z"/>
<path d="M17394 4075 c-9 -14 -25 -25 -35 -25 -11 0 -19 -3 -19 -8 0 -4 18 -6
41 -4 31 3 45 0 60 -17 14 -15 33 -21 67 -22 26 0 76 -3 112 -5 103 -7 112 -2
108 54 l-3 47 -157 3 -157 3 -17 -26z"/>
<path d="M0 3643 l1 -348 43 90 c52 106 102 167 160 197 22 11 52 29 65 39 21
17 43 19 205 19 99 0 198 -4 218 -9 59 -14 94 10 164 113 50 74 71 96 124 128
l64 38 198 0 198 0 0 30 c0 17 -6 32 -12 35 -7 2 -331 6 -720 10 l-708 6 0
-348z"/>
<path d="M189 3538 c-30 -28 -80 -101 -101 -148 -57 -124 -88 -213 -88 -252
l0 -43 54 61 c48 53 102 90 176 119 8 3 26 12 40 20 19 11 68 15 217 15 180 0
196 -1 245 -23 29 -13 70 -41 90 -62 47 -49 60 -29 24 36 -14 24 -33 78 -42
119 -31 138 -63 181 -118 160 -15 -5 -109 -10 -209 -10 -142 0 -188 3 -211 15
-38 20 -49 19 -77 -7z"/>
<path d="M170 3218 c-35 -22 -73 -59 -111 -108 -55 -71 -58 -78 -59 -132 l0
-58 50 20 c27 11 80 25 117 31 37 7 79 21 92 31 21 16 46 18 216 18 112 0 205
-5 223 -11 43 -15 100 4 108 35 7 28 -35 125 -67 155 -20 19 -31 21 -69 16
-25 -4 -124 -7 -220 -6 -158 2 -177 4 -196 22 -11 10 -22 19 -25 19 -3 0 -29
-15 -59 -32z"/>
<path d="M175 2953 c-11 -2 -55 -16 -97 -30 l-78 -26 0 -144 c0 -115 3 -145
14 -149 8 -3 19 -19 25 -35 5 -16 16 -29 22 -29 7 0 38 20 68 43 31 24 67 50
81 57 14 7 38 24 53 36 28 23 34 24 205 24 97 0 193 -4 214 -9 50 -12 90 9
115 62 23 47 48 170 38 186 -9 16 -126 13 -155 -4 -19 -11 -69 -14 -212 -15
-175 0 -189 1 -208 20 -19 19 -42 23 -85 13z"/>
<path d="M13169 1753 c35 -12 45 -13 51 -2 6 9 12 10 22 2 8 -7 78 -11 193
-11 99 -1 205 -1 235 -2 30 -1 60 0 65 1 6 2 28 0 50 -3 22 -4 56 -3 75 1 l35
9 -35 2 c-19 1 -46 3 -60 5 -14 1 -171 5 -350 8 -304 6 -322 5 -281 -10z"/>
<path d="M14050 1032 c0 -8 -17 -10 -52 -7 -40 4 -49 2 -38 -6 11 -8 7 -10
-20 -6 -43 5 -60 0 -60 -19 0 -8 -7 -14 -15 -14 -8 0 -15 -3 -15 -7 0 -5 -15
-18 -34 -31 l-34 -23 21 -22 c19 -19 23 -20 29 -7 5 10 7 5 5 -12 -1 -20 7
-33 37 -57 21 -17 42 -28 47 -25 5 3 9 0 9 -5 0 -7 20 -9 53 -6 38 4 48 2 37
-6 -11 -8 -9 -9 10 -3 14 4 27 9 30 13 8 10 49 31 60 31 24 0 52 38 46 62 -3
12 -3 17 0 11 10 -23 21 -14 21 17 0 21 -4 29 -13 26 -8 -3 -11 0 -7 10 4 10
0 12 -11 8 -9 -3 -16 -2 -16 4 0 5 -11 13 -25 16 -14 4 -24 10 -21 15 3 4 -6
19 -19 31 -14 13 -25 18 -25 12z"/>
</g>
</svg>
